<?xml version="1.0" encoding="UTF-8"?>
<svg id="Layer_1" data-name="Layer 1" xmlns="http://www.w3.org/2000/svg" viewBox="0 0 1080 1080">
  <defs>
    <style>
      .cls-1 {
        fill: #fff;
      }

      .cls-2 {
        fill: #fffbaf;
      }
    </style>
  </defs>
  <g>
    <path class="cls-2" d="M862.46,521.34l100.12-.21-4.44,10.33-88.91.2-12.98,30.24c-2.8,6.53-1.46,14.1,3.43,19.27l53.05,56.09,4.48-10.44-60.75-64.29c-4.88-5.16-6.22-12.73-3.42-19.26l9.42-21.94Z"/>
    <path class="cls-2" d="M982.86,539.91c-2.8,6.53-9.22,10.77-16.32,10.79l-88.45.24-4.48,10.44,77.2-.18c7.11-.02,13.52-4.26,16.33-10.79l12.98-30.24-61.09-64.6,4.44-10.33,68.81,72.73-9.42,21.94Z"/>
  </g>
  <g>
    <polygon class="cls-1" points="87.72 488.29 97.31 488.29 97.31 454.82 176.23 454.82 176.23 445.24 87.72 445.24 87.72 488.29"/>
    <path class="cls-1" d="M728.2,488.29v-33.4h73.9v-9.59h-59.14c-13.46,0-24.37,10.91-24.37,24.37l.02,18.62h9.59Z"/>
    <path class="cls-1" d="M837.37,445.54l-20.52,47.52h5.78l5.33-12.34h33.42l5.29,12.34h5.81l-20.52-47.52h-14.59ZM830.24,475.4l10.61-24.53h7.61l10.58,24.53h-28.8Z"/>
    <rect class="cls-1" x="877.5" y="445.51" width="5.33" height="47.55"/>
    <path class="cls-1" d="M87.72,507.91v23.16h9.59v-38.02h65.8v-9.59l-51.07.09c-13.44.02-24.32,10.92-24.32,24.37Z"/>
    <path class="cls-1" d="M728.19,493.05h58.9v-9.59l-44.16.09c-13.45.02-24.33,10.93-24.33,24.36v23.17h9.6v-.06h73.92v-9.59h-73.92v-28.37Z"/>
    <path class="cls-1" d="M201.6,445.44h-9.59v61.47c0,13.46,10.91,24.36,24.37,24.36h57.69v-9.59h-72.47v-76.25Z"/>
    <path class="cls-1" d="M378.61,454.18c-9.77-7.63-24.36-11.45-43.76-11.45s-33.94,3.82-43.73,11.45c-9.79,7.63-14.69,19.01-14.69,34.14s4.9,26.44,14.69,34.07c9.79,7.63,24.37,11.45,43.73,11.45s33.99-3.82,43.76-11.45c9.77-7.63,14.66-18.99,14.66-34.07s-4.89-26.51-14.66-34.14ZM384.08,488.32c0,2.61-.19,5.31-.57,8.1-.38,2.79-1.17,5.54-2.36,8.24-1.19,2.7-2.9,5.26-5.13,7.67-2.23,2.41-5.17,4.53-8.81,6.35-3.65,1.82-8.12,3.28-13.41,4.36-5.29,1.08-11.61,1.62-18.94,1.62s-13.65-.54-18.94-1.62c-5.29-1.08-9.76-2.53-13.41-4.36-3.65-1.82-6.58-3.94-8.81-6.35-2.23-2.41-3.94-4.96-5.13-7.67-1.19-2.7-1.98-5.45-2.36-8.24-.38-2.79-.57-5.49-.57-8.1s.19-5.31.57-8.1c.38-2.79,1.17-5.54,2.36-8.24,1.19-2.7,2.9-5.26,5.13-7.67,2.23-2.41,5.17-4.53,8.81-6.35,3.65-1.82,8.12-3.28,13.41-4.36,5.29-1.08,11.6-1.62,18.94-1.62s13.65.54,18.94,1.62c5.29,1.08,9.76,2.53,13.41,4.36,3.65,1.82,6.58,3.94,8.81,6.35,2.23,2.41,3.94,4.96,5.13,7.67,1.19,2.7,1.98,5.45,2.36,8.24.38,2.79.57,5.49.57,8.1Z"/>
    <path class="cls-1" d="M560.47,445.51c-6.61,0-12.62,3.75-15.55,9.62.26-.01.53-.03.79-.03h30.1l32.82,75.98h10.47l-36.94-85.57h-21.7Z"/>
    <path class="cls-1" d="M529.76,465.59l-28.29,65.48h10.57l32.47-75.08c.13-.29.27-.58.41-.87-6.62.3-12.52,4.34-15.17,10.46Z"/>
    <path class="cls-1" d="M509.63,445.51l-32.47,75.08c-.13.29-.27.58-.41.87,6.62-.3,12.52-4.34,15.17-10.46l28.29-65.48h-10.57Z"/>
    <path class="cls-1" d="M445.84,521.48l-32.82-75.98h-10.47l36.94,85.57h21.7c6.61,0,12.62-3.75,15.55-9.62-.26.01-.53.03-.79.03h-30.1Z"/>
    <path class="cls-1" d="M655.64,469.67l.02,61.4h9.59v-76.18h45.18v-9.59h-30.42c-13.46,0-24.37,10.91-24.37,24.37Z"/>
    <rect class="cls-1" x="610.47" y="445.51" width="49.98" height="9.59"/>
  </g>
  <g>
    <polygon class="cls-2" points="120 561.71 107.77 575.25 105.92 575.25 93.69 561.71 87.72 561.71 103.84 579.55 104 579.72 104.65 579.72 104.65 592.93 109.04 592.93 109.04 579.72 109.71 579.72 125.97 561.71 120 561.71"/>
    <path class="cls-2" d="M159.31,564.9c-3.45-2.75-8.64-4.14-15.43-4.14s-11.96,1.39-15.42,4.14c-3.5,2.78-5.27,6.97-5.27,12.44s1.77,9.64,5.27,12.42c3.46,2.75,8.65,4.14,15.42,4.14s11.98-1.39,15.43-4.14c3.49-2.78,5.26-6.96,5.26-12.42s-1.77-9.66-5.26-12.44ZM154.8,587.53c-1.21.62-2.72,1.12-4.49,1.48-1.78.37-3.95.56-6.43.56s-4.64-.19-6.43-.56c-1.77-.37-3.28-.87-4.49-1.48-1.19-.61-2.16-1.32-2.88-2.11-.72-.8-1.29-1.65-1.67-2.54-.39-.9-.65-1.82-.78-2.75-.13-.95-.19-1.89-.19-2.78s.06-1.82.19-2.78c.12-.92.38-1.85.78-2.75.38-.89.95-1.74,1.67-2.54.72-.79,1.69-1.51,2.88-2.11,1.21-.62,2.72-1.12,4.49-1.48,1.78-.37,3.94-.56,6.43-.56s4.64.19,6.43.56c1.77.37,3.28.87,4.49,1.48,1.19.61,2.16,1.32,2.88,2.11.73.8,1.29,1.66,1.67,2.54.39.9.65,1.83.77,2.75.13.96.19,1.89.19,2.78s-.07,1.82-.19,2.78c-.12.92-.38,1.85-.77,2.75-.39.89-.95,1.75-1.67,2.54-.72.79-1.69,1.51-2.88,2.11Z"/>
    <path class="cls-2" d="M197.46,583.31c0,.43-.05.9-.15,1.38-.09.45-.29.9-.58,1.34-.3.44-.73.88-1.29,1.29-.57.42-1.34.79-2.3,1.11-.98.33-2.2.59-3.64.78-1.45.19-3.2.29-5.22.29s-3.77-.1-5.22-.29c-1.44-.19-2.66-.46-3.64-.79-.96-.32-1.73-.69-2.3-1.11-.56-.41-1-.85-1.29-1.29-.29-.44-.49-.89-.58-1.34-.1-.48-.15-.95-.15-1.38v-21.6h-4.39v21.6c0,1.77.35,3.29,1.04,4.52.68,1.22,1.57,2.24,2.66,3.04,1.06.78,2.28,1.39,3.62,1.81,1.3.41,2.61.72,3.89.91,1.27.19,2.49.31,3.63.34,1.13.03,2.04.05,2.74.05s1.62-.02,2.74-.05c1.14-.03,2.36-.15,3.63-.34,1.28-.19,2.59-.5,3.89-.91,1.33-.42,2.55-1.03,3.62-1.81,1.08-.79,1.98-1.81,2.66-3.04.69-1.23,1.04-2.76,1.04-4.52v-21.6h-4.39v21.6Z"/>
    <path class="cls-2" d="M259.1,587.45c-1.05.28-2.03.53-2.94.74-.91.21-1.79.39-2.65.55-.85.15-1.71.28-2.54.39-.84.1-1.71.19-2.62.26-.9.07-1.87.12-2.88.14-1.02.02-2.13.04-3.34.04-2.48,0-4.65-.19-6.44-.56-1.78-.37-3.29-.87-4.5-1.48-1.19-.61-2.16-1.32-2.87-2.11-.72-.8-1.28-1.66-1.68-2.55-.4-.9-.66-1.82-.79-2.75-.13-.95-.19-1.89-.19-2.78s.06-1.82.19-2.78c.12-.92.39-1.85.79-2.75.39-.89.96-1.75,1.68-2.55.71-.79,1.68-1.5,2.87-2.11,1.21-.62,2.72-1.12,4.5-1.48,1.79-.37,3.96-.56,6.44-.56,1.21,0,2.32.01,3.33.04,1.01.02,1.97.07,2.88.13.9.06,1.78.15,2.61.26.84.11,1.69.24,2.55.4.86.16,1.75.34,2.67.55.92.21,1.9.46,2.95.74l.53.14,1.06-4.2-.52-.14c-1.11-.3-2.15-.57-3.12-.79-.97-.22-1.91-.42-2.83-.6-.92-.18-1.84-.32-2.74-.43-.9-.11-1.84-.2-2.8-.26-.96-.06-1.98-.11-3.06-.14-1.08-.03-2.25-.05-3.51-.05-6.79,0-11.98,1.39-15.44,4.14-3.5,2.78-5.27,6.97-5.27,12.44s1.77,9.64,5.27,12.42c3.46,2.75,8.65,4.14,15.44,4.14,1.88,0,3.6-.03,5.09-.1,1.5-.06,2.94-.18,4.29-.35,1.37-.17,2.75-.4,4.11-.7,1.35-.29,2.88-.66,4.56-1.11l.52-.14-1.06-4.2-.53.14Z"/>
    <path class="cls-2" d="M298.1,575.35c.69-1.31,1.04-2.77,1.04-4.32,0-1.29-.24-2.52-.72-3.65-.48-1.13-1.14-2.13-1.97-2.97-.83-.83-1.8-1.51-2.9-2-1.11-.49-2.31-.75-3.57-.75h-26.89v31.27h4.39v-12.54h22.5c.65,0,1.27.13,1.85.38.58.26,1.09.61,1.52,1.05.43.44.78.96,1.03,1.55.25.58.37,1.22.37,1.88v7.68h4.39v-7.68c0-1.56-.35-3.01-1.04-4.31-.57-1.08-1.32-2.01-2.21-2.79.9-.78,1.64-1.72,2.21-2.8ZM267.49,566.14h22.5c.65,0,1.27.13,1.85.38.58.26,1.09.61,1.52,1.05s.78.97,1.03,1.56c.25.59.38,1.23.38,1.9s-.13,1.31-.38,1.9c-.25.6-.6,1.12-1.03,1.56-.43.44-.94.79-1.52,1.05-.58.25-1.2.38-1.85.38h-22.5v-9.78Z"/>
    <path class="cls-2" d="M369.6,582.64l.51-.18-1.25-3.58-.51.18c-.72.26-1.46.49-2.18.69-.59.16-1.19.3-1.79.44l-7.79-18.38h-9.77l-7.38,17.39-2.53-.49c-.98-.19-1.97-.38-2.96-.57-2.24-.44-4.49-.87-6.76-1.28-2.28-.41-4.57-.76-6.81-1.04-2.26-.28-4.53-.46-6.74-.54-2.02-.07-4.04-.02-6.01.16v-9.25h25v-4.47h-29.38v14.35c-1.12.23-2.24.52-3.32.86l-.52.16,1.12,3.65.52-.17c.47-.15.93-.28,1.4-.39l.81-.18v13.07h29.38v-4.47h-25v-9.33c1.85-.19,3.76-.26,5.69-.19,2.09.07,4.26.24,6.43.51,2.18.27,4.42.61,6.65,1.02,2.26.41,4.55.85,6.86,1.31.89.17,1.77.34,2.66.51.67.13,1.34.25,2.02.38l-4.32,10.23h4.76l4-9.46c2.2.37,4.4.68,6.55.92,3.34.38,6.74.52,9.93.29.85-.06,1.71-.15,2.56-.25l3.61,8.5h4.76l-3.94-9.29c.53-.13,1.06-.26,1.58-.4.73-.19,1.46-.42,2.16-.68ZM353.72,566.28l6.16,14.58c-2.57.23-5.19.25-7.81.05-2.67-.2-5.42-.52-8.17-.95l5.8-13.67h4.02Z"/>
    <polygon class="cls-2" points="367.62 566.14 383.21 566.14 383.21 592.93 387.6 592.93 387.6 566.14 403.18 566.14 403.18 561.66 367.62 561.66 367.62 566.14"/>
    <polygon class="cls-2" points="404.92 593 434.3 593 434.3 588.53 409.31 588.53 409.31 579.56 431.11 579.56 431.11 575.08 409.31 575.08 409.31 566.11 434.3 566.11 434.3 561.64 404.92 561.64 404.92 593"/>
    <path class="cls-2" d="M436.58,593.19h1.79v.07c0,.2-.02.39-.06.57-.03.13-.08.24-.16.34-.04.05-.16.06-.22.06h-.54v2.69h.54c.69,0,1.29-.19,1.79-.55.5-.36.87-.88,1.1-1.52.1-.23.16-.49.2-.76l.09-.66c.03-.26.05-.52.05-.78v-4.11h-4.6v4.66Z"/>
    <polygon class="cls-2" points="488 588.48 486.59 588.48 480.75 575.41 486.33 561.71 481.6 561.71 478.28 569.84 474.64 561.71 469.82 561.71 475.97 575.48 470.7 588.48 469.28 588.48 457.33 561.71 452.51 561.71 466.45 592.95 473.61 592.95 478.46 581.05 483.78 592.95 490.94 592.95 503.66 561.71 498.91 561.71 488 588.48"/>
    <polygon class="cls-2" points="505.13 593 534.51 593 534.51 588.53 509.52 588.53 509.52 579.56 531.32 579.56 531.32 575.08 509.52 575.08 509.52 566.11 534.51 566.11 534.51 561.64 505.13 561.64 505.13 593"/>
    <rect class="cls-2" x="554.54" y="561.71" width="4.39" height="31.22"/>
    <polygon class="cls-2" points="624.26 588.38 622.01 588.38 601.77 561.57 593.51 561.62 593.51 588.38 591.27 588.38 571.02 561.57 562.76 561.57 562.76 592.83 567.15 592.83 567.15 566.04 568.88 566.04 589.1 592.86 597.9 592.86 597.9 566.04 599.63 566.04 619.85 592.86 628.65 592.86 628.65 561.62 624.26 561.62 624.26 588.38"/>
    <path class="cls-2" d="M667.04,564.9c-3.45-2.75-8.64-4.14-15.43-4.14s-11.96,1.39-15.42,4.14c-3.5,2.78-5.27,6.97-5.27,12.44s1.77,9.64,5.27,12.42c3.46,2.75,8.65,4.14,15.42,4.14s11.98-1.39,15.43-4.14c3.49-2.78,5.26-6.96,5.26-12.42s-1.77-9.66-5.26-12.44ZM662.53,587.53c-1.21.62-2.72,1.12-4.49,1.48-1.78.37-3.95.56-6.43.56s-4.64-.19-6.43-.56c-1.77-.37-3.28-.87-4.49-1.48-1.19-.61-2.16-1.32-2.88-2.11-.72-.8-1.29-1.65-1.67-2.54-.39-.9-.65-1.82-.78-2.75-.13-.95-.19-1.89-.19-2.78s.06-1.82.19-2.78c.12-.92.38-1.85.78-2.75.38-.89.95-1.74,1.67-2.54.72-.79,1.69-1.51,2.88-2.11,1.21-.62,2.72-1.12,4.49-1.48,1.78-.37,3.94-.56,6.43-.56s4.64.19,6.43.56c1.77.37,3.28.87,4.49,1.48,1.19.61,2.16,1.32,2.88,2.11.73.8,1.29,1.66,1.67,2.54.39.9.65,1.83.77,2.75.13.96.19,1.89.19,2.78s-.07,1.82-.19,2.78c-.12.92-.38,1.85-.77,2.75-.39.89-.95,1.75-1.67,2.54-.72.79-1.69,1.51-2.88,2.11Z"/>
    <polygon class="cls-2" points="701.78 561.73 690.46 588.46 687.07 588.46 675.75 561.73 670.97 561.73 684.17 592.93 693.34 592.93 706.57 561.73 701.78 561.73"/>
    <path class="cls-2" d="M714.55,561.73l-13.21,31.2h4.76l3.31-7.82h20.04l3.28,7.82h4.79l-13.21-31.2h-9.77ZM721.45,566.21l6.1,14.43h-16.25l6.13-14.43h4.02Z"/>
    <polygon class="cls-2" points="735.42 566.14 751.01 566.14 751.01 592.93 755.4 592.93 755.4 566.14 770.98 566.14 770.98 561.66 735.42 561.66 735.42 566.14"/>
    <polygon class="cls-2" points="802.1 566.11 802.1 561.64 772.72 561.64 772.72 593 802.1 593 802.1 588.53 777.11 588.53 777.11 579.56 798.91 579.56 798.91 575.08 777.11 575.08 777.11 566.11 802.1 566.11"/>
  </g>
</svg>