<?xml version="1.0" encoding="UTF-8"?>
<svg id="Layer_1" data-name="Layer 1" xmlns="http://www.w3.org/2000/svg" viewBox="0 0 1080 1080">
  <path d="M56.77,481.86v49.36h10.99v-38.37h90.49v-10.99H56.77Z"/>
  <path d="M808.02,481.94h67.81v10.99h-84.73v38.29h-11l-.02-21.34c0-15.43,12.5-27.94,27.94-27.94Z"/>
  <g>
    <g>
      <path d="M899.36,536.69h-6.62l23.52-54.48h16.73l23.52,54.48h-6.66l-6.06-14.15h-38.31l-6.11,14.15ZM908.09,516.44h33.02l-12.13-28.12h-8.73l-12.17,28.12Z"/>
      <path d="M968.38,536.69h-6.11v-54.52h6.11v54.52Z"/>
    </g>
    <path d="M67.77,580.28h-11v-26.56c0-15.41,12.48-27.91,27.89-27.94l58.55-.1v11h-75.45v43.59Z"/>
    <path d="M807.98,525.78c-15.42.02-27.9,12.53-27.9,27.93v26.56h11v-43.6h67.53v-11l-50.64.1Z"/>
    <path d="M270.41,580.51h-66.14c-15.43,0-27.94-12.51-27.94-27.94v-70.48h11v87.42h83.08v11Z"/>
    <path d="M340.1,583.45c-22.2,0-38.91-4.38-50.14-13.13-11.23-8.75-16.84-21.77-16.84-39.06s5.61-30.39,16.84-39.14c11.23-8.75,27.94-13.12,50.14-13.12s38.97,4.37,50.18,13.12c11.2,8.75,16.8,21.8,16.8,39.14s-5.6,30.32-16.8,39.06c-11.2,8.75-27.93,13.13-50.18,13.13ZM340.1,489.6c-8.41,0-15.65.62-21.72,1.86-6.07,1.24-11.19,2.9-15.37,4.99-4.18,2.09-7.55,4.52-10.1,7.28-2.56,2.76-4.52,5.69-5.89,8.79-1.37,3.1-2.27,6.25-2.71,9.45-.44,3.2-.66,6.3-.66,9.29s.22,6.09.66,9.29c.44,3.2,1.34,6.35,2.71,9.45,1.37,3.1,3.33,6.03,5.89,8.79,2.56,2.76,5.92,5.19,10.1,7.28,4.18,2.09,9.3,3.76,15.37,4.99,6.06,1.24,13.3,1.86,21.72,1.86s15.65-.62,21.72-1.86c6.07-1.24,11.19-2.9,15.37-4.99,4.18-2.09,7.55-4.52,10.11-7.28,2.56-2.76,4.52-5.69,5.88-8.79,1.37-3.1,2.27-6.25,2.71-9.45.44-3.2.66-6.3.66-9.29s-.22-6.09-.66-9.29c-.44-3.2-1.34-6.35-2.71-9.45-1.37-3.1-3.33-6.03-5.88-8.79-2.56-2.76-5.92-5.19-10.11-7.28-4.18-2.09-9.3-3.76-15.37-4.99-6.07-1.24-13.31-1.86-21.72-1.86Z"/>
    <path d="M623.67,482.17l42.35,98.11h-12l-37.63-87.11h-34.51c-7.95,0-15.15,4.73-18.3,12.03l-32.43,75.08h12.12l37.23-86.08c3.16-7.3,10.35-12.02,18.3-12.02h24.88Z"/>
    <path d="M460.09,580.28l-42.35-98.11h12l37.63,87.11h34.51c7.95,0,15.15-4.73,18.3-12.03l32.43-75.08h-12.12l-37.23,86.08c-3.16,7.3-10.35,12.02-18.3,12.02h-24.88Z"/>
    <path d="M735.84,481.94h34.88v10.99h-51.8v87.34h-11l-.02-70.4c0-15.43,12.5-27.94,27.94-27.94Z"/>
    <path d="M780.08,569.2v11h95.75v-11h-95.75Z"/>
  </g>
  <path d="M656.11,482.17v11h57.3v-11h-57.3Z"/>
</svg>